<svg xmlns="http://www.w3.org/2000/svg" width="200" height="200" viewBox="0 0 200 200"><g stroke="#23373e" stroke-width="4" stroke-linejoin="round"><path d="M30 42L56 20H146L172 46V132L143 174H57L28 132Z" fill="#8c815f"/><path d="M52 48L76 30H126L148 48V90H52Z" fill="#d5c596"/><path d="M48 94H152L138 120H62Z" fill="#15272c"/><path d="M64 101H136L127 111H73Z" fill="#f2ab77" stroke="none"/><path d="M77 128H123L118 156H82Z" fill="#d5c596"/><path d="M100 37V78M61 59H80M121 59H139" fill="none"/><path d="M32 64H17V113H33M167 64H182V113H167" fill="#d5c596"/></g></svg>
